<svg xmlns="http://www.w3.org/2000/svg" viewBox="0 0 750 500"><g id="freepik--background-complete--inject-114"><rect x="331.06" y="118.87" width="44.03" height="183.9" style="fill:#f5f5f5"></rect><rect x="353.08" y="118.87" width="22.01" height="183.45" style="fill:#ebebeb"></rect><rect x="336.09" y="105.17" width="15.55" height="13.7" style="fill:#f5f5f5"></rect><rect x="347.93" y="105.17" width="3.71" height="13.7" style="fill:#ebebeb"></rect><polyline points="327.39 118.87 327.39 118.07 376.38 118.07 376.38 118.87" style="fill:#e0e0e0"></polyline><rect x="339.76" y="124.84" width="3.73" height="7.86" style="fill:#fafafa"></rect><path d="M353.08,135.78c0,.08-4.93.15-11,.15s-11-.07-11-.15,4.93-.15,11-.15S353.08,135.7,353.08,135.78Z" style="fill:#e0e0e0"></path><rect x="361.96" y="124.84" width="3.73" height="7.86" style="fill:#e0e0e0"></rect><path d="M375.28,135.78c0,.08-4.93.15-11,.15s-11-.07-11-.15,4.93-.15,11-.15S375.28,135.7,375.28,135.78Z" style="fill:#e0e0e0"></path><rect x="361.96" y="140.44" width="3.73" height="7.86" style="fill:#e0e0e0"></rect><path d="M375.28,151.38c0,.09-4.93.15-11,.15s-11-.06-11-.15,4.93-.15,11-.15S375.28,151.3,375.28,151.38Z" style="fill:#e0e0e0"></path><rect x="361.96" y="156.51" width="3.73" height="7.86" style="fill:#e0e0e0"></rect><path d="M375.28,167.46c0,.08-4.93.15-11,.15s-11-.07-11-.15,4.93-.15,11-.15S375.28,167.37,375.28,167.46Z" style="fill:#e0e0e0"></path><rect x="361.96" y="172.59" width="3.73" height="7.86" style="fill:#e0e0e0"></rect><path d="M375.28,183.53c0,.08-4.93.15-11,.15s-11-.07-11-.15,4.93-.15,11-.15S375.28,183.44,375.28,183.53Z" style="fill:#e0e0e0"></path><rect x="361.96" y="188.2" width="3.73" height="7.86" style="fill:#e0e0e0"></rect><path d="M375.28,199.14c0,.08-4.93.15-11,.15s-11-.07-11-.15,4.93-.15,11-.15S375.28,199.06,375.28,199.14Z" style="fill:#e0e0e0"></path><rect x="361.96" y="203.87" width="3.73" height="7.86" style="fill:#e0e0e0"></rect><rect x="361.96" y="219.75" width="3.73" height="7.86" style="fill:#e0e0e0"></rect><path d="M375.28,214.81c0,.09-4.93.15-11,.15s-11-.06-11-.15,4.93-.15,11-.15S375.28,214.73,375.28,214.81Z" style="fill:#e0e0e0"></path><rect x="339.76" y="140.68" width="3.73" height="7.86" style="fill:#fafafa"></rect><path d="M353.08,151.62c0,.08-4.93.15-11,.15s-11-.07-11-.15,4.93-.15,11-.15S353.08,151.54,353.08,151.62Z" style="fill:#e0e0e0"></path><rect x="339.76" y="156.52" width="3.73" height="7.86" style="fill:#fafafa"></rect><path d="M353.08,167.46c0,.08-4.93.15-11,.15s-11-.07-11-.15,4.93-.15,11-.15S353.08,167.38,353.08,167.46Z" style="fill:#e0e0e0"></path><rect x="339.76" y="172.36" width="3.73" height="7.86" style="fill:#fafafa"></rect><path d="M353.08,183.3c0,.08-4.93.15-11,.15s-11-.07-11-.15,4.93-.15,11-.15S353.08,183.22,353.08,183.3Z" style="fill:#e0e0e0"></path><rect x="339.76" y="188.2" width="3.73" height="7.86" style="fill:#fafafa"></rect><path d="M353.08,199.14c0,.08-4.93.15-11,.15s-11-.07-11-.15,4.93-.15,11-.15S353.08,199.06,353.08,199.14Z" style="fill:#e0e0e0"></path><rect x="339.76" y="204.04" width="3.73" height="7.86" style="fill:#fafafa"></rect><path d="M353.08,215c0,.08-4.93.15-11,.15s-11-.07-11-.15,4.93-.15,11-.15S353.08,214.9,353.08,215Z" style="fill:#e0e0e0"></path><rect x="339.76" y="219.88" width="3.73" height="7.86" style="fill:#fafafa"></rect><rect x="256.28" y="162.86" width="44.03" height="139.53" style="fill:#f5f5f5"></rect><rect x="278.29" y="162.86" width="22.01" height="139.15" style="fill:#ebebeb"></rect><rect x="261.3" y="149.16" width="15.55" height="13.7" style="fill:#f5f5f5"></rect><rect x="273.15" y="149.16" width="3.71" height="13.7" style="fill:#ebebeb"></rect><polyline points="252.61 162.86 252.61 162.06 301.59 162.06 301.59 162.86" style="fill:#e0e0e0"></polyline><rect x="264.97" y="168.84" width="3.73" height="7.86" style="fill:#fafafa"></rect><path d="M278.29,179.78c0,.08-4.93.15-11,.15s-11-.07-11-.15,4.92-.15,11-.15S278.29,179.7,278.29,179.78Z" style="fill:#e0e0e0"></path><rect x="287.17" y="168.84" width="3.73" height="7.86" style="fill:#e0e0e0"></rect><path d="M300.5,179.78c0,.08-4.93.15-11,.15s-11-.07-11-.15,4.93-.15,11-.15S300.5,179.7,300.5,179.78Z" style="fill:#e0e0e0"></path><rect x="287.17" y="184.44" width="3.73" height="7.86" style="fill:#e0e0e0"></rect><path d="M300.5,195.38c0,.08-4.93.15-11,.15s-11-.07-11-.15,4.93-.15,11-.15S300.5,195.3,300.5,195.38Z" style="fill:#e0e0e0"></path><rect x="287.17" y="200.51" width="3.73" height="7.86" style="fill:#e0e0e0"></rect><path d="M300.5,211.45c0,.09-4.93.15-11,.15s-11-.06-11-.15,4.93-.15,11-.15S300.5,211.37,300.5,211.45Z" style="fill:#e0e0e0"></path><rect x="287.17" y="216.58" width="3.73" height="7.86" style="fill:#e0e0e0"></rect><path d="M300.5,227.52c0,.09-4.93.15-11,.15s-11-.06-11-.15,4.93-.15,11-.15S300.5,227.44,300.5,227.52Z" style="fill:#e0e0e0"></path><rect x="287.17" y="232.19" width="3.73" height="7.86" style="fill:#e0e0e0"></rect><path d="M300.5,243.14c0,.08-4.93.15-11,.15s-11-.07-11-.15,4.93-.15,11-.15S300.5,243.05,300.5,243.14Z" style="fill:#e0e0e0"></path><rect x="287.17" y="247.87" width="3.73" height="7.86" style="fill:#e0e0e0"></rect><rect x="287.17" y="263.75" width="3.73" height="7.86" style="fill:#e0e0e0"></rect><path d="M300.5,258.81c0,.08-4.93.15-11,.15s-11-.07-11-.15,4.93-.15,11-.15S300.5,258.73,300.5,258.81Z" style="fill:#e0e0e0"></path><rect x="264.97" y="184.68" width="3.73" height="7.86" style="fill:#fafafa"></rect><path d="M278.29,195.62c0,.08-4.93.15-11,.15s-11-.07-11-.15,4.92-.15,11-.15S278.29,195.54,278.29,195.62Z" style="fill:#e0e0e0"></path><rect x="264.97" y="200.52" width="3.73" height="7.86" style="fill:#fafafa"></rect><path d="M278.29,211.46c0,.08-4.93.15-11,.15s-11-.07-11-.15,4.92-.15,11-.15S278.29,211.38,278.29,211.46Z" style="fill:#e0e0e0"></path><rect x="264.97" y="216.36" width="3.73" height="7.86" style="fill:#fafafa"></rect><path d="M278.29,227.3c0,.08-4.93.15-11,.15s-11-.07-11-.15,4.92-.15,11-.15S278.29,227.21,278.29,227.3Z" style="fill:#e0e0e0"></path><rect x="264.97" y="232.19" width="3.73" height="7.86" style="fill:#fafafa"></rect><path d="M278.29,243.14c0,.08-4.93.15-11,.15s-11-.07-11-.15,4.92-.15,11-.15S278.29,243.05,278.29,243.14Z" style="fill:#e0e0e0"></path><rect x="264.97" y="248.03" width="3.73" height="7.86" style="fill:#fafafa"></rect><path d="M278.29,259c0,.08-4.93.15-11,.15s-11-.07-11-.15,4.92-.15,11-.15S278.29,258.89,278.29,259Z" style="fill:#e0e0e0"></path><rect x="264.97" y="263.87" width="3.73" height="7.86" style="fill:#fafafa"></rect><rect x="575.25" y="185.74" width="42.81" height="135.67" style="fill:#f5f5f5"></rect><rect x="596.65" y="185.74" width="21.4" height="135.3" style="fill:#ebebeb"></rect><rect x="580.14" y="172.42" width="15.12" height="13.32" style="fill:#f5f5f5"></rect><rect x="591.65" y="172.42" width="3.6" height="13.32" style="fill:#ebebeb"></rect><polyline points="571.68 185.74 571.68 184.96 619.31 184.96 619.31 185.74" style="fill:#e0e0e0"></polyline><rect x="583.7" y="191.55" width="3.62" height="7.64" style="fill:#fafafa"></rect><path d="M596.65,202.19c0,.08-4.79.14-10.7.14s-10.7-.06-10.7-.14S580,202,586,202,596.65,202.11,596.65,202.19Z" style="fill:#e0e0e0"></path><rect x="605.29" y="191.55" width="3.62" height="7.64" style="fill:#e0e0e0"></rect><path d="M618.24,202.19c0,.08-4.79.14-10.7.14s-10.7-.06-10.7-.14,4.79-.15,10.7-.15S618.24,202.11,618.24,202.19Z" style="fill:#e0e0e0"></path><rect x="605.29" y="206.72" width="3.62" height="7.64" style="fill:#e0e0e0"></rect><path d="M618.24,217.36c0,.08-4.79.14-10.7.14s-10.7-.06-10.7-.14,4.79-.15,10.7-.15S618.24,217.28,618.24,217.36Z" style="fill:#e0e0e0"></path><rect x="605.29" y="222.35" width="3.62" height="7.64" style="fill:#e0e0e0"></rect><path d="M618.24,233c0,.08-4.79.14-10.7.14s-10.7-.06-10.7-.14,4.79-.15,10.7-.15S618.24,232.9,618.24,233Z" style="fill:#e0e0e0"></path><rect x="605.29" y="237.97" width="3.62" height="7.64" style="fill:#e0e0e0"></rect><path d="M618.24,248.61c0,.08-4.79.15-10.7.15s-10.7-.07-10.7-.15,4.79-.14,10.7-.14S618.24,248.53,618.24,248.61Z" style="fill:#e0e0e0"></path><rect x="605.29" y="253.15" width="3.62" height="7.64" style="fill:#e0e0e0"></rect><path d="M618.24,263.79c0,.08-4.79.15-10.7.15s-10.7-.07-10.7-.15,4.79-.14,10.7-.14S618.24,263.71,618.24,263.79Z" style="fill:#e0e0e0"></path><rect x="605.29" y="268.4" width="3.62" height="7.64" style="fill:#e0e0e0"></rect><rect x="605.29" y="283.84" width="3.62" height="7.64" style="fill:#e0e0e0"></rect><path d="M618.24,279c0,.08-4.79.14-10.7.14s-10.7-.06-10.7-.14,4.79-.15,10.7-.15S618.24,279,618.24,279Z" style="fill:#e0e0e0"></path><rect x="583.7" y="206.95" width="3.62" height="7.64" style="fill:#fafafa"></rect><path d="M596.65,217.59c0,.08-4.79.15-10.7.15s-10.7-.07-10.7-.15,4.79-.15,10.7-.15S596.65,217.51,596.65,217.59Z" style="fill:#e0e0e0"></path><rect x="583.7" y="222.35" width="3.62" height="7.64" style="fill:#fafafa"></rect><path d="M596.65,233c0,.08-4.79.15-10.7.15s-10.7-.07-10.7-.15,4.79-.15,10.7-.15S596.65,232.91,596.65,233Z" style="fill:#e0e0e0"></path><rect x="583.7" y="237.75" width="3.62" height="7.64" style="fill:#fafafa"></rect><path d="M596.65,248.39c0,.08-4.79.15-10.7.15s-10.7-.07-10.7-.15,4.79-.14,10.7-.14S596.65,248.31,596.65,248.39Z" style="fill:#e0e0e0"></path><rect x="583.7" y="253.15" width="3.62" height="7.64" style="fill:#fafafa"></rect><path d="M596.65,263.79c0,.08-4.79.15-10.7.15s-10.7-.07-10.7-.15,4.79-.14,10.7-.14S596.65,263.71,596.65,263.79Z" style="fill:#e0e0e0"></path><rect x="583.7" y="268.56" width="3.62" height="7.64" style="fill:#fafafa"></rect><path d="M596.65,279.19c0,.08-4.79.15-10.7.15s-10.7-.07-10.7-.15,4.79-.14,10.7-.14S596.65,279.11,596.65,279.19Z" style="fill:#e0e0e0"></path><rect x="583.7" y="283.96" width="3.62" height="7.64" style="fill:#fafafa"></rect><rect x="615.25" y="250.82" width="52.25" height="165.59" style="fill:#f5f5f5"></rect><rect x="641.38" y="250.82" width="26.12" height="165.13" style="fill:#ebebeb"></rect><rect x="621.22" y="234.56" width="18.45" height="16.26" style="fill:#f5f5f5"></rect><rect x="635.27" y="234.56" width="4.4" height="16.26" style="fill:#ebebeb"></rect><polyline points="610.9 250.82 610.9 249.87 669.03 249.87 669.03 250.82" style="fill:#e0e0e0"></polyline><rect x="625.57" y="257.91" width="4.42" height="9.33" style="fill:#fafafa"></rect><path d="M641.38,270.9c0,.09-5.85.17-13.06.17s-13.07-.08-13.07-.17,5.85-.18,13.07-.18S641.38,270.8,641.38,270.9Z" style="fill:#e0e0e0"></path><rect x="651.92" y="257.91" width="4.42" height="9.33" style="fill:#e0e0e0"></rect><path d="M667.73,270.9c0,.09-5.85.17-13.06.17s-13.06-.08-13.06-.17,5.84-.18,13.06-.18S667.73,270.8,667.73,270.9Z" style="fill:#e0e0e0"></path><rect x="651.92" y="276.42" width="4.42" height="9.33" style="fill:#e0e0e0"></rect><path d="M667.73,289.41c0,.1-5.85.18-13.06.18s-13.06-.08-13.06-.18,5.84-.18,13.06-.18S667.73,289.31,667.73,289.41Z" style="fill:#e0e0e0"></path><rect x="651.92" y="295.5" width="4.42" height="9.33" style="fill:#e0e0e0"></rect><path d="M667.73,308.48c0,.1-5.85.18-13.06.18s-13.06-.08-13.06-.18,5.84-.17,13.06-.17S667.73,308.38,667.73,308.48Z" style="fill:#e0e0e0"></path><rect x="651.92" y="314.57" width="4.42" height="9.33" style="fill:#e0e0e0"></rect><path d="M667.73,327.56c0,.09-5.85.17-13.06.17s-13.06-.08-13.06-.17,5.84-.18,13.06-.18S667.73,327.46,667.73,327.56Z" style="fill:#e0e0e0"></path><rect x="651.92" y="333.1" width="4.42" height="9.33" style="fill:#e0e0e0"></rect><path d="M667.73,346.08c0,.1-5.85.18-13.06.18s-13.06-.08-13.06-.18,5.84-.17,13.06-.17S667.73,346,667.73,346.08Z" style="fill:#e0e0e0"></path><rect x="651.92" y="351.7" width="4.42" height="9.33" style="fill:#e0e0e0"></rect><rect x="651.92" y="370.55" width="4.42" height="9.33" style="fill:#e0e0e0"></rect><path d="M667.73,364.69c0,.1-5.85.17-13.06.17s-13.06-.07-13.06-.17,5.84-.18,13.06-.18S667.73,364.59,667.73,364.69Z" style="fill:#e0e0e0"></path><rect x="625.57" y="276.71" width="4.42" height="9.33" style="fill:#fafafa"></rect><path d="M641.38,289.69c0,.1-5.85.18-13.06.18s-13.07-.08-13.07-.18,5.85-.18,13.07-.18S641.38,289.59,641.38,289.69Z" style="fill:#e0e0e0"></path><rect x="625.57" y="295.5" width="4.42" height="9.33" style="fill:#fafafa"></rect><path d="M641.38,308.49c0,.1-5.85.18-13.06.18s-13.07-.08-13.07-.18,5.85-.18,13.07-.18S641.38,308.39,641.38,308.49Z" style="fill:#e0e0e0"></path><rect x="625.57" y="314.3" width="4.42" height="9.33" style="fill:#fafafa"></rect><path d="M641.38,327.29c0,.1-5.85.17-13.06.17s-13.07-.07-13.07-.17,5.85-.18,13.07-.18S641.38,327.19,641.38,327.29Z" style="fill:#e0e0e0"></path><rect x="625.57" y="333.1" width="4.42" height="9.33" style="fill:#fafafa"></rect><path d="M641.38,346.08c0,.1-5.85.18-13.06.18s-13.07-.08-13.07-.18,5.85-.17,13.07-.17S641.38,346,641.38,346.08Z" style="fill:#e0e0e0"></path><rect x="625.57" y="351.9" width="4.42" height="9.33" style="fill:#fafafa"></rect><path d="M641.38,364.88c0,.1-5.85.18-13.06.18s-13.07-.08-13.07-.18,5.85-.18,13.07-.18S641.38,364.78,641.38,364.88Z" style="fill:#e0e0e0"></path><rect x="625.57" y="370.69" width="4.42" height="9.33" style="fill:#fafafa"></rect><rect x="553.51" y="314.24" width="73.86" height="97.41" style="fill:#ebebeb"></rect><rect x="592.73" y="314.24" width="34.63" height="97.41" style="fill:#e0e0e0"></rect><rect x="568.99" y="327.43" width="6.64" height="16.13" style="fill:#f5f5f5"></rect><rect x="568.99" y="390.57" width="6.64" height="16.13" style="fill:#f5f5f5"></rect><path d="M592.73,349.89c0,.18-8.78.33-19.61.33s-19.61-.15-19.61-.33,8.78-.33,19.61-.33S592.73,349.71,592.73,349.89Z" style="fill:#f5f5f5"></path><rect x="568.99" y="359.24" width="6.64" height="16.13" style="fill:#f5f5f5"></rect><path d="M592.73,381.7c0,.19-8.78.33-19.61.33s-19.61-.14-19.61-.33,8.78-.32,19.61-.32S592.73,381.52,592.73,381.7Z" style="fill:#f5f5f5"></path><rect x="600.09" y="327.43" width="6.64" height="16.13" style="fill:#f5f5f5"></rect><rect x="614.49" y="327.43" width="6.64" height="16.13" style="fill:#f5f5f5"></rect><rect x="600.09" y="358.04" width="6.64" height="16.13" style="fill:#f5f5f5"></rect><rect x="614.49" y="358.04" width="6.64" height="16.13" style="fill:#f5f5f5"></rect><rect x="600.09" y="388.66" width="6.64" height="16.13" style="fill:#f5f5f5"></rect><rect x="614.49" y="388.66" width="6.64" height="16.13" style="fill:#f5f5f5"></rect><rect x="547.95" y="310.85" width="84.96" height="3.51" style="fill:#e0e0e0"></rect><path d="M627.88,314.69c0,.18-16.51.33-36.87.33s-36.87-.15-36.87-.33,16.51-.33,36.87-.33S627.88,314.51,627.88,314.69Z" style="fill:#ebebeb"></path><polygon points="364.07 302.58 299.28 302.58 299 200.19 363.79 200.19 364.07 302.58" style="fill:#ebebeb"></polygon><rect x="331.39" y="200.19" width="32.39" height="102.39" style="fill:#e0e0e0"></rect><rect x="306.4" y="180.04" width="22.88" height="20.16" style="fill:#ebebeb"></rect><rect x="323.82" y="180.04" width="5.45" height="20.16" style="fill:#e0e0e0"></rect><rect x="293.6" y="199.02" width="72.08" height="1.18" style="fill:#e0e0e0"></rect><rect x="311.79" y="208.99" width="5.48" height="11.56" style="fill:#fff"></rect><path d="M331.39,225.09c0,.12-7.25.22-16.19.22s-16.2-.1-16.2-.22,7.25-.22,16.2-.22S331.39,225,331.39,225.09Z" style="fill:#e0e0e0"></path><rect x="344.46" y="208.99" width="5.48" height="11.56" style="fill:#f5f5f5"></rect><path d="M364.07,225.09c0,.12-7.25.22-16.2.22s-16.2-.1-16.2-.22,7.25-.22,16.2-.22S364.07,225,364.07,225.09Z" style="fill:#ebebeb"></path><rect x="344.46" y="231.94" width="5.48" height="11.56" style="fill:#f5f5f5"></rect><path d="M364.07,248c0,.13-7.25.22-16.2.22s-16.2-.09-16.2-.22,7.25-.22,16.2-.22S364.07,247.92,364.07,248Z" style="fill:#ebebeb"></path><rect x="344.46" y="255.59" width="5.48" height="11.56" style="fill:#f5f5f5"></rect><path d="M364.07,271.69c0,.13-7.25.23-16.2.23s-16.2-.1-16.2-.23,7.25-.22,16.2-.22S364.07,271.57,364.07,271.69Z" style="fill:#ebebeb"></path><rect x="344.46" y="279.24" width="5.48" height="11.56" style="fill:#f5f5f5"></rect><path d="M364.07,295.34c0,.13-7.25.23-16.2.23s-16.2-.1-16.2-.23,7.25-.22,16.2-.22S364.07,295.22,364.07,295.34Z" style="fill:#ebebeb"></path><rect x="311.79" y="232.29" width="5.48" height="11.56" style="fill:#fff"></rect><path d="M331.39,248.39c0,.13-7.25.23-16.19.23s-16.2-.1-16.2-.23,7.25-.22,16.2-.22S331.39,248.27,331.39,248.39Z" style="fill:#e0e0e0"></path><rect x="311.79" y="255.6" width="5.48" height="11.56" style="fill:#fff"></rect><path d="M331.39,271.7c0,.12-7.25.22-16.19.22s-16.2-.1-16.2-.22,7.25-.22,16.2-.22S331.39,271.58,331.39,271.7Z" style="fill:#e0e0e0"></path><rect x="311.79" y="278.91" width="5.48" height="11.56" style="fill:#fff"></rect><path d="M331.39,295c0,.12-7.25.22-16.19.22s-16.2-.1-16.2-.22,7.25-.22,16.2-.22S331.39,294.89,331.39,295Z" style="fill:#e0e0e0"></path><polygon points="265.9 346.81 201.12 346.81 200.83 244.42 265.62 244.42 265.9 346.81" style="fill:#ebebeb"></polygon><rect x="233.23" y="244.42" width="32.39" height="102.39" style="fill:#e0e0e0"></rect><rect x="208.23" y="224.27" width="22.88" height="20.16" style="fill:#ebebeb"></rect><rect x="225.66" y="224.27" width="5.45" height="20.16" style="fill:#e0e0e0"></rect><rect x="195.44" y="243.25" width="72.08" height="1.18" style="fill:#e0e0e0"></rect><rect x="213.62" y="253.22" width="5.48" height="11.56" style="fill:#fff"></rect><path d="M233.23,269.32c0,.12-7.25.22-16.2.22s-16.2-.1-16.2-.22,7.26-.22,16.2-.22S233.23,269.19,233.23,269.32Z" style="fill:#e0e0e0"></path><rect x="246.3" y="253.22" width="5.48" height="11.56" style="fill:#f5f5f5"></rect><path d="M265.9,269.32c0,.12-7.25.22-16.19.22s-16.2-.1-16.2-.22,7.25-.22,16.2-.22S265.9,269.19,265.9,269.32Z" style="fill:#ebebeb"></path><rect x="246.3" y="276.17" width="5.48" height="11.56" style="fill:#f5f5f5"></rect><path d="M265.9,292.27c0,.13-7.25.23-16.19.23s-16.2-.1-16.2-.23,7.25-.22,16.2-.22S265.9,292.15,265.9,292.27Z" style="fill:#ebebeb"></path><rect x="246.3" y="299.82" width="5.48" height="11.56" style="fill:#f5f5f5"></rect><path d="M265.9,315.92c0,.13-7.25.23-16.19.23s-16.2-.1-16.2-.23,7.25-.22,16.2-.22S265.9,315.8,265.9,315.92Z" style="fill:#ebebeb"></path><rect x="246.3" y="323.47" width="5.48" height="11.56" style="fill:#f5f5f5"></rect><path d="M265.9,339.57c0,.13-7.25.23-16.19.23s-16.2-.1-16.2-.23,7.25-.22,16.2-.22S265.9,339.45,265.9,339.57Z" style="fill:#ebebeb"></path><rect x="213.62" y="276.52" width="5.48" height="11.56" style="fill:#fff"></rect><path d="M233.23,292.62c0,.13-7.25.23-16.2.23s-16.2-.1-16.2-.23,7.26-.22,16.2-.22S233.23,292.5,233.23,292.62Z" style="fill:#e0e0e0"></path><rect x="213.62" y="299.83" width="5.48" height="11.56" style="fill:#fff"></rect><path d="M233.23,315.93c0,.12-7.25.22-16.2.22s-16.2-.1-16.2-.22,7.26-.22,16.2-.22S233.23,315.81,233.23,315.93Z" style="fill:#e0e0e0"></path><rect x="213.62" y="323.14" width="5.48" height="11.56" style="fill:#fff"></rect><path d="M233.23,339.24c0,.12-7.25.22-16.2.22s-16.2-.1-16.2-.22,7.26-.22,16.2-.22S233.23,339.12,233.23,339.24Z" style="fill:#e0e0e0"></path><path d="M381.24,59.1c.6-4.36-5.55-7.94-10.16-8.31-2.2-.18-4.49.16-6.58-.57-4.51-1.57-6.32-7.41-10.73-9.27-3.29-1.39-7.09-.15-10.28,1.46s-6.36,3.63-9.93,3.86c-3.1.2-6.48-1-9.19.56-2,1.13-3.09,3.47-4.95,4.84s-4.21,1.63-6.48,1.76-4.61.14-6.67,1.09-3.77,3.12-3.34,5.35Z" style="fill:#f5f5f5"></path><path d="M90.71,239.93c.37-2.7-3.45-4.93-6.32-5.16a16.36,16.36,0,0,1-4.09-.35c-2.81-1-3.93-4.61-6.67-5.77-2-.86-4.41-.09-6.4.91s-4,2.25-6.17,2.4c-1.93.12-4-.6-5.72.35-1.26.7-1.92,2.15-3.08,3a7.43,7.43,0,0,1-4,1.09,11.34,11.34,0,0,0-4.15.68A3.26,3.26,0,0,0,42,240.42Z" style="fill:#f5f5f5"></path><path d="M730.28,191.48c.59-4.35-5.55-7.93-10.17-8.3-2.2-.18-4.48.16-6.57-.57-4.52-1.58-6.32-7.41-10.73-9.27-3.3-1.39-7.09-.16-10.29,1.45s-6.35,3.63-9.92,3.86c-3.11.2-6.48-1-9.2.57-2,1.13-3.08,3.46-4.95,4.84s-4.21,1.63-6.47,1.75-4.61.15-6.67,1.09-3.77,3.13-3.34,5.36Z" style="fill:#ebebeb"></path><path d="M526.92,99.75c.52-3.78-4.82-6.9-8.84-7.22-1.91-.15-3.9.14-5.72-.49-3.93-1.37-5.5-6.45-9.33-8.07-2.87-1.21-6.17-.13-8.95,1.27s-5.53,3.16-8.64,3.35c-2.7.18-5.63-.82-8,.5-1.77,1-2.69,3-4.31,4.21a10.31,10.31,0,0,1-5.63,1.52,16,16,0,0,0-5.81,1c-1.79.82-3.27,2.72-2.9,4.66Z" style="fill:#ebebeb"></path><path d="M265.72,111.11c.61-4.45-5.67-8.11-10.39-8.49-2.25-.18-4.59.16-6.73-.58-4.62-1.61-6.47-7.59-11-9.49-3.38-1.42-7.26-.15-10.53,1.49S220.6,97.76,217,98c-3.17.2-6.62-1-9.4.58-2.07,1.15-3.16,3.54-5.07,5s-4.3,1.67-6.62,1.79-4.71.15-6.82,1.12-3.86,3.2-3.42,5.47Z" style="fill:#ebebeb"></path><path d="M120.69,60.8c.48-3.49-4.44-6.35-8.13-6.65-1.77-.14-3.6.13-5.27-.46-3.62-1.26-5.06-5.93-8.59-7.42-2.64-1.11-5.68-.12-8.24,1.16s-5.09,2.91-7.95,3.1c-2.48.15-5.18-.77-7.36.45-1.62.9-2.47,2.77-4,3.87A9.49,9.49,0,0,1,66,56.26a14.75,14.75,0,0,0-5.34.87c-1.65.76-3,2.5-2.68,4.29Z" style="fill:#ebebeb"></path><path d="M647.26,39.92c.33-2.43-3.09-4.42-5.66-4.63a14.35,14.35,0,0,1-3.66-.32c-2.52-.87-3.52-4.12-6-5.16-1.84-.77-4-.09-5.73.81s-3.54,2-5.53,2.15c-1.73.11-3.61-.53-5.12.32-1.13.63-1.72,1.92-2.76,2.69a6.56,6.56,0,0,1-3.6,1,10.13,10.13,0,0,0-3.72.61,2.93,2.93,0,0,0-1.86,3Z" style="fill:#f5f5f5"></path></g><g id="freepik--Floor--inject-114"><path d="M734.28,439.71c0,.14-160.87.26-359.26.26s-359.3-.12-359.3-.26,160.84-.26,359.3-.26S734.28,439.56,734.28,439.71Z" style="fill:#263238"></path></g><g id="freepik--Helicopter--inject-114"><path d="M96.45,193.08c1.65,3.38,5.86,3.07,9,3,3-.07,6-.17,9-.28q8.65-.31,17.32-.7l3.73-.17c.73,0,.74-1.17,0-1.14-9.12.42-18.25.81-27.38,1.08-1.45,0-2.9.09-4.35.11-2.34.05-5.19-.06-6.36-2.47-.32-.66-1.31-.08-1,.58Z" style="fill:#263238"></path><path d="M101.18,195.33a18.1,18.1,0,0,1,4.64-9.47c.5-.54-.3-1.35-.8-.81a19.16,19.16,0,0,0-4.94,10c-.12.72,1,1,1.1.3Z" style="fill:#263238"></path><path d="M129.8,186.52a18.29,18.29,0,0,1-.36,7.51.57.57,0,0,0,1.1.31,19.68,19.68,0,0,0,.36-8.12c-.11-.72-1.21-.42-1.1.3Z" style="fill:#263238"></path><path d="M119.77,187.71c1.68,1.07,2,3.28,2.22,5.11a46.5,46.5,0,0,1,.33,6.88.57.57,0,0,0,1.14,0A46.86,46.86,0,0,0,123,192c-.28-2-.88-4.14-2.7-5.31-.62-.39-1.19.59-.57,1Z" style="fill:#263238"></path><path d="M147.25,186.77a8.74,8.74,0,0,1,2,5,45.45,45.45,0,0,1,.44,6.6.57.57,0,0,0,1.14,0,46.47,46.47,0,0,0-.51-7.08,9.51,9.51,0,0,0-2.3-5.29c-.52-.52-1.33.29-.81.8Z" style="fill:#263238"></path><path d="M114.75,198.28c1.4,2.75,4.65,3,7.38,2.79,3.74-.23,7.47-.51,11.21-.77l22.49-1.53c.73-.05.73-1.19,0-1.14L135.14,199l-10.35.71c-2.88.2-7.43,1.13-9.06-2-.34-.65-1.32-.08-1,.57Z" style="fill:#263238"></path><path d="M204.79,160.88s0-.86-.2-2.39a22,22,0,0,0-1.53-6.31,7.92,7.92,0,0,0-2.57-3.52,2.73,2.73,0,0,0-2.24-.41,4.16,4.16,0,0,0-2,1.46,13.46,13.46,0,0,0-2.28,5.11,27.34,27.34,0,0,0,0,12.12,13.58,13.58,0,0,0,2.28,5.12,4.22,4.22,0,0,0,2,1.46,2.69,2.69,0,0,0,2.24-.42,7.84,7.84,0,0,0,2.57-3.51,22.19,22.19,0,0,0,1.53-6.31c.16-1.54.15-2.4.2-2.4a3.44,3.44,0,0,1,0,.63,17.32,17.32,0,0,1,0,1.78,20.61,20.61,0,0,1-1.4,6.43,8.21,8.21,0,0,1-2.67,3.71,3.09,3.09,0,0,1-2.56.49,4.55,4.55,0,0,1-2.26-1.58,13.82,13.82,0,0,1-2.4-5.29,27.16,27.16,0,0,1,0-12.34,13.85,13.85,0,0,1,2.4-5.28,4.55,4.55,0,0,1,2.26-1.58,3.09,3.09,0,0,1,2.56.48,8.23,8.23,0,0,1,2.67,3.72,20.56,20.56,0,0,1,1.4,6.42,17.5,17.5,0,0,1,0,1.79A3.27,3.27,0,0,1,204.79,160.88Z" style="fill:#263238"></path><path d="M95.05,177.67c-.58-4.54,2.15-8.11,7-9.25,0,0,4.31-16.23,16.61-17.37s29.55.63,33.23,3,8.11,10.27,11.41,10.78,23.33,2.91,24.34,2.91c.7,0,4.19-5.89,6.32-9.6a4.09,4.09,0,0,1,4.9-1.83l.07,0L194.71,174l-28.27,1.52s-10.15,11.54-17.63,11.54-32.84.89-37.28,0S95.81,183.63,95.05,177.67Z" style="fill:#FF5E47"></path><rect x="142.15" y="161.57" width="9.57" height="11.58" rx="3.82" style="fill:#fff"></rect><path d="M137.69,145.58a18.48,18.48,0,0,1-8.56,0V141h8.56Z" style="fill:#263238"></path><rect x="131.02" y="143.04" width="4.78" height="5.71" style="fill:#263238"></rect><path d="M135.9,182.61s.3-.7.77-2a37.78,37.78,0,0,0,1.49-5.58,51.31,51.31,0,0,0,.89-8.51,45.43,45.43,0,0,0-.15-5,1.85,1.85,0,0,0-.47-1.06,1.53,1.53,0,0,0-1.09-.37h-5.53a1.19,1.19,0,0,0-1,.49,1.11,1.11,0,0,0-.2.52l-.06.65c-.14,1.76-.31,3.45-.5,5.06a76.7,76.7,0,0,1-1.49,8.5,48.49,48.49,0,0,1-1.66,5.57c-.23.65-.43,1.14-.57,1.47a4.74,4.74,0,0,1-.24.5,1.74,1.74,0,0,1,.15-.53c.12-.39.29-.89.49-1.5.42-1.3,1-3.2,1.5-5.59a81.15,81.15,0,0,0,1.38-8.47c.19-1.6.34-3.29.48-5.05l.06-.67a1.54,1.54,0,0,1,.27-.72,1.64,1.64,0,0,1,1.36-.7h5.54a2,2,0,0,1,1.41.5,2.39,2.39,0,0,1,.59,1.33,44.7,44.7,0,0,1,.13,5.12,49,49,0,0,1-1,8.57,31.63,31.63,0,0,1-1.64,5.58,14.5,14.5,0,0,1-.66,1.44A2.53,2.53,0,0,1,135.9,182.61Z" style="fill:#263238"></path><path d="M115.74,155.26c-5.48,0-6.79.76-6.91.84A32.19,32.19,0,0,0,102,168.42c3.51-1.49,8.86.58,11.85,2.83s4.58,3.73,8.88,3.45,3.83-4.67,4.76-11.4S121.53,155.26,115.74,155.26Z" style="fill:#e0e0e0"></path><g style="opacity:0.30000000000000004"><path d="M149.79,182.05s-22.53,1-29.35.83-13.93-6.07-18.12-7.59a11,11,0,0,0-7.2-.35.29.29,0,0,1,0,.09l-.12,1a9.86,9.86,0,0,0,.07,1.62c.76,6,12,8.51,16.48,9.39s29.8,0,37.28,0c5.29,0,11.9-5.76,15.33-9.14C159.91,179,149.79,182.05,149.79,182.05Z" style="fill:#fff"></path></g><path d="M149.5,182a5.25,5.25,0,0,1-1.09.14c-.71.07-1.73.14-3,.22-2.53.16-6,.34-9.87.48s-7.36.23-9.89.24c-1.26,0-2.29,0-3,0a5.41,5.41,0,0,1-1.1-.09,4.89,4.89,0,0,1,1.1-.1l3-.12,9.87-.37,9.87-.35,3-.06A5.57,5.57,0,0,1,149.5,182Z" style="fill:#263238"></path><rect x="168.61" y="170.08" width="5.87" height="2.23" style="fill:#fff"></rect><rect x="168.8" y="170.09" width="5.49" height="2.21" transform="translate(0.35 342.74) rotate(-90)" style="fill:#fff"></rect><path d="M124,150.74s1.66-2.41,3.62-2.67,11.94-.27,15.3,1.33a21.28,21.28,0,0,1,5.71,4.13Z" style="fill:#FF5E47"></path><path d="M187.37,142a2.51,2.51,0,0,0-.16-.53,3,3,0,0,0-1.15-1.12,20.92,20.92,0,0,0-5.89-2.14,144,144,0,0,0-23-3c-9.78-.64-21.46-.92-34.41-.48-6.48.24-13.27.63-20.28,1.43-3.49.4-7,.9-10.61,1.63a44.83,44.83,0,0,0-5.3,1.37,15.94,15.94,0,0,0-2.52,1.05c-.76.42-1.62,1-1.67,1.78s.9,1.37,1.66,1.79a16,16,0,0,0,2.53,1.05,45.18,45.18,0,0,0,5.29,1.37c3.56.74,7.12,1.23,10.62,1.63,7,.8,13.8,1.2,20.28,1.43,13,.44,24.63.16,34.41-.48a144,144,0,0,0,23-3,20.92,20.92,0,0,0,5.89-2.14,3,3,0,0,0,1.15-1.12,2.77,2.77,0,0,0,.16-.52,1.27,1.27,0,0,1-.12.54,2.94,2.94,0,0,1-1.14,1.18,20.23,20.23,0,0,1-5.89,2.24c-5.33,1.36-13.23,2.46-23,3.16a341.89,341.89,0,0,1-34.46.58c-6.48-.22-13.29-.62-20.31-1.41-3.51-.4-7.08-.89-10.66-1.62a46.93,46.93,0,0,1-5.36-1.39,15.41,15.41,0,0,1-2.6-1.09,6.65,6.65,0,0,1-1.19-.82,1.67,1.67,0,0,1,0-2.75,6.36,6.36,0,0,1,1.19-.83,16.23,16.23,0,0,1,2.6-1.08,46.93,46.93,0,0,1,5.36-1.39c3.58-.73,7.14-1.22,10.65-1.62,7-.79,13.83-1.18,20.31-1.41a341.63,341.63,0,0,1,34.45.58,141,141,0,0,1,23,3.16,20.2,20.2,0,0,1,5.9,2.24,2.94,2.94,0,0,1,1.14,1.18A1.28,1.28,0,0,1,187.37,142Z" style="fill:#263238"></path><ellipse cx="133.41" cy="141.19" rx="4.28" ry="1.11" style="fill:#455a64"></ellipse><path d="M130.47,142.31c0,.13-5.88,1.24-13.19,2.48s-13.25,2.14-13.27,2,5.88-1.24,13.19-2.48S130.45,142.18,130.47,142.31Z" style="fill:#263238"></path><path d="M133.07,141a1.89,1.89,0,0,1-.44,0l-1.25,0-4.62.08c-3.89.06-9.28.17-15.22.39s-11.31.52-15.2.75l-4.61.27-1.26,0a1.38,1.38,0,0,1-.44,0,1.23,1.23,0,0,1,.44-.08l1.24-.15c1.09-.12,2.66-.26,4.6-.42,3.89-.31,9.27-.66,15.22-.88s11.33-.28,15.23-.26c2,0,3.53,0,4.62.08l1.25.05A1.18,1.18,0,0,1,133.07,141Z" style="fill:#263238"></path><path d="M119.78,158.09a73.32,73.32,0,0,1-7.42,3.72,71.64,71.64,0,0,1-7.62,3.28,74.66,74.66,0,0,1,7.42-3.72A72.66,72.66,0,0,1,119.78,158.09Z" style="fill:#263238"></path><path d="M118.08,161.2a46.9,46.9,0,0,1-4.61,2.46,50.15,50.15,0,0,1-4.66,2.36,20.77,20.77,0,0,1,4.44-2.78A20.94,20.94,0,0,1,118.08,161.2Z" style="fill:#263238"></path><path d="M150.25,153.15c0,.13-5.87-.33-13.07-1s-13-1.37-13-1.5,5.86.33,13.07,1S150.26,153,150.25,153.15Z" style="fill:#263238"></path></g><g id="freepik--hospital-building--inject-114"><rect x="42.32" y="273.26" width="357.78" height="166.18" style="fill:#e0e0e0"></rect><path d="M400.09,273.26c0,1.49.08,63.61.19,166.18v.19h-.19l-357.75.07h-.28v-.26c0-58.46,0-114.68,0-166.18V273h.25l357.77.25-357.77.24.24-.24c0,51.5,0,107.72,0,166.18l-.26-.26h0l357.75.07-.19.19C400,336.87,400.09,274.75,400.09,273.26Z" style="fill:#263238"></path><rect x="42.32" y="383.76" width="353.38" height="55.67" style="fill:#FF5E47"></rect><rect x="184.54" y="398.25" width="132.74" height="30.27" style="fill:#455a64"></rect><path d="M305.28,398.47v29.9a.23.23,0,0,0,.45,0v-29.9a.23.23,0,0,0-.45,0Z" style="fill:#e0e0e0"></path><path d="M290.44,398.47v29.9a.23.23,0,0,0,.46,0v-29.9a.23.23,0,0,0-.46,0Z" style="fill:#e0e0e0"></path><path d="M275.61,398.47v29.9a.23.23,0,0,0,.45,0v-29.9a.23.23,0,1,0-.45,0Z" style="fill:#e0e0e0"></path><path d="M260.77,398.47v29.9a.23.23,0,0,0,.46,0v-29.9a.23.23,0,0,0-.46,0Z" style="fill:#e0e0e0"></path><path d="M245.94,398.47v29.9a.23.23,0,0,0,.45,0v-29.9a.23.23,0,1,0-.45,0Z" style="fill:#e0e0e0"></path><path d="M231.1,398.47v29.9a.23.23,0,0,0,.46,0v-29.9a.23.23,0,0,0-.46,0Z" style="fill:#e0e0e0"></path><path d="M216.27,398.47v29.9a.23.23,0,0,0,.45,0v-29.9a.23.23,0,1,0-.45,0Z" style="fill:#e0e0e0"></path><path d="M201.43,398.47v29.9a.23.23,0,0,0,.46,0v-29.9a.23.23,0,0,0-.46,0Z" style="fill:#e0e0e0"></path><g style="opacity:0.30000000000000004"><polygon points="184.53 402.14 315.05 402.14 315.05 428.56 317.3 428.56 317.3 398.28 184.56 398.28 184.53 402.14"></polygon></g><rect x="327.06" y="398.55" width="69.39" height="30.27" style="fill:#455a64"></rect><path d="M388.45,398.76v29.91a.23.23,0,0,0,.46,0V398.76a.23.23,0,0,0-.46,0Z" style="fill:#e0e0e0"></path><path d="M373.62,398.76v29.91a.23.23,0,0,0,.45,0V398.76a.23.23,0,0,0-.45,0Z" style="fill:#e0e0e0"></path><path d="M358.78,398.76v29.91a.23.23,0,0,0,.46,0V398.76a.23.23,0,0,0-.46,0Z" style="fill:#e0e0e0"></path><path d="M343.94,398.76v29.91a.23.23,0,0,0,.46,0V398.76a.23.23,0,0,0-.46,0Z" style="fill:#e0e0e0"></path><polyline points="42.32 398.45 175.06 398.45 175.06 428.73 42.32 428.73" style="fill:#455a64"></polyline><g style="opacity:0.30000000000000004"><polygon points="175.06 400.15 80.57 428.81 80.57 428.81 98.97 428.57 175.06 406.43 175.06 400.15" style="fill:#fff"></polygon></g><g style="opacity:0.30000000000000004"><polygon points="175.06 409.24 111.68 428.52 111.68 428.81 117.11 428.59 175.06 411 175.06 409.24" style="fill:#fff"></polygon></g><path d="M163.05,398.67v29.9a.23.23,0,0,0,.46,0v-29.9a.23.23,0,0,0-.46,0Z" style="fill:#e0e0e0"></path><path d="M148.21,398.67v29.9a.23.23,0,0,0,.46,0v-29.9a.23.23,0,0,0-.46,0Z" style="fill:#e0e0e0"></path><path d="M133.38,398.67v29.9a.23.23,0,0,0,.45,0v-29.9a.22.22,0,1,0-.45,0Z" style="fill:#e0e0e0"></path><path d="M118.54,398.67v29.9a.23.23,0,0,0,.46,0v-29.9a.23.23,0,0,0-.46,0Z" style="fill:#e0e0e0"></path><path d="M103.71,398.67v29.9a.23.23,0,0,0,.45,0v-29.9a.22.22,0,1,0-.45,0Z" style="fill:#e0e0e0"></path><path d="M88.87,398.67v29.9a.23.23,0,0,0,.46,0v-29.9a.23.23,0,0,0-.46,0Z" style="fill:#e0e0e0"></path><path d="M74,398.67v29.9a.23.23,0,0,0,.45,0v-29.9a.22.22,0,0,0-.45,0Z" style="fill:#e0e0e0"></path><path d="M59.2,398.67v29.9a.23.23,0,0,0,.46,0v-29.9a.23.23,0,0,0-.46,0Z" style="fill:#e0e0e0"></path><g style="opacity:0.30000000000000004"><polygon points="42.28 402.31 172.8 402.31 172.8 428.73 175.06 428.73 175.06 398.45 42.32 398.45 42.28 402.31"></polygon></g><g style="opacity:0.30000000000000004"><rect x="161.77" y="428.57" width="8.1" height="4.88" style="fill:#fff"></rect></g><g style="opacity:0.30000000000000004"><rect x="92.83" y="388.47" width="8.1" height="4.88" style="fill:#fff"></rect></g><path d="M42.85,429h132a.23.23,0,0,0,0-.45h-132a.23.23,0,0,0,0,.45Z" style="fill:#e0e0e0"></path><path d="M184.91,429H317.29a.23.23,0,0,0,0-.45H184.91a.23.23,0,0,0,0,.45Z" style="fill:#e0e0e0"></path><rect x="42.32" y="326.8" width="132.74" height="33.78" style="fill:#455a64"></rect><path d="M163.05,327v33.37a.23.23,0,0,0,.46,0V327a.23.23,0,0,0-.46,0Z" style="fill:#e0e0e0"></path><path d="M148.21,327v33.37a.23.23,0,0,0,.46,0V327a.23.23,0,0,0-.46,0Z" style="fill:#e0e0e0"></path><path d="M133.38,327v33.37a.23.23,0,0,0,.45,0V327a.23.23,0,0,0-.45,0Z" style="fill:#e0e0e0"></path><path d="M118.54,327v33.37a.23.23,0,0,0,.46,0V327a.23.23,0,0,0-.46,0Z" style="fill:#e0e0e0"></path><path d="M103.71,327v33.37a.23.23,0,0,0,.45,0V327a.23.23,0,0,0-.45,0Z" style="fill:#e0e0e0"></path><path d="M88.87,327v33.37a.23.23,0,0,0,.46,0V327a.23.23,0,0,0-.46,0Z" style="fill:#e0e0e0"></path><path d="M74,327v33.37a.23.23,0,0,0,.45,0V327a.23.23,0,0,0-.45,0Z" style="fill:#e0e0e0"></path><path d="M59.2,327v33.37a.23.23,0,0,0,.46,0V327a.23.23,0,0,0-.46,0Z" style="fill:#e0e0e0"></path><path d="M42.68,361H175.06a.23.23,0,0,0,0-.46H42.68a.23.23,0,0,0,0,.46Z" style="fill:#e0e0e0"></path><path d="M326.79,429.15h68.79a.23.23,0,0,0,0-.46H326.79a.23.23,0,0,0,0,.46Z" style="fill:#e0e0e0"></path><g style="opacity:0.30000000000000004"><rect x="327.06" y="398.55" width="68.52" height="4.47"></rect></g><path d="M42.41,353.44H175.05a.23.23,0,0,0,0-.45H42.41a.23.23,0,0,0,0,.45Z" style="fill:#e0e0e0"></path><g style="opacity:0.30000000000000004"><polygon points="42.3 330.66 172.82 330.66 172.82 360.41 175.07 360.41 175.07 326.8 42.33 326.8 42.3 330.66"></polygon></g><rect x="184.93" y="326.8" width="132.74" height="33.78" style="fill:#455a64"></rect><path d="M305.66,327v33.37a.23.23,0,0,0,.46,0V327a.23.23,0,0,0-.46,0Z" style="fill:#e0e0e0"></path><path d="M290.83,327v33.37a.23.23,0,0,0,.45,0V327a.23.23,0,0,0-.45,0Z" style="fill:#e0e0e0"></path><path d="M276,327v33.37a.23.23,0,0,0,.46,0V327a.23.23,0,0,0-.46,0Z" style="fill:#e0e0e0"></path><path d="M261.16,327v33.37a.23.23,0,0,0,.45,0V327a.23.23,0,0,0-.45,0Z" style="fill:#e0e0e0"></path><path d="M246.32,327v33.37a.23.23,0,0,0,.46,0V327a.23.23,0,0,0-.46,0Z" style="fill:#e0e0e0"></path><path d="M231.48,327v33.37a.23.23,0,0,0,.46,0V327a.23.23,0,0,0-.46,0Z" style="fill:#e0e0e0"></path><path d="M216.65,327v33.37a.23.23,0,0,0,.45,0V327a.23.23,0,0,0-.45,0Z" style="fill:#e0e0e0"></path><path d="M201.81,327v33.37a.23.23,0,0,0,.46,0V327a.23.23,0,0,0-.46,0Z" style="fill:#e0e0e0"></path><rect x="42.32" y="293.62" width="132.74" height="12.36" style="fill:#455a64"></rect><path d="M163.05,293.71v12.2a.23.23,0,0,0,.46,0v-12.2a.23.23,0,0,0-.46,0Z" style="fill:#e0e0e0"></path><path d="M148.21,293.71v12.2a.23.23,0,0,0,.46,0v-12.2a.23.23,0,0,0-.46,0Z" style="fill:#e0e0e0"></path><path d="M133.38,293.71v12.2a.23.23,0,0,0,.45,0v-12.2a.22.22,0,0,0-.45,0Z" style="fill:#e0e0e0"></path><path d="M118.54,293.71v12.2a.23.23,0,0,0,.46,0v-12.2a.23.23,0,0,0-.46,0Z" style="fill:#e0e0e0"></path><path d="M103.71,293.71v12.2a.23.23,0,0,0,.45,0v-12.2a.22.22,0,0,0-.45,0Z" style="fill:#e0e0e0"></path><path d="M88.87,293.71v12.2a.23.23,0,0,0,.46,0v-12.2a.23.23,0,0,0-.46,0Z" style="fill:#e0e0e0"></path><path d="M74,293.71v12.2a.23.23,0,0,0,.45,0v-12.2a.22.22,0,0,0-.45,0Z" style="fill:#e0e0e0"></path><path d="M59.2,293.71v12.2a.23.23,0,0,0,.46,0v-12.2a.23.23,0,0,0-.46,0Z" style="fill:#e0e0e0"></path><path d="M185.29,361H317.67a.23.23,0,0,0,0-.46H185.29a.23.23,0,0,0,0,.46Z" style="fill:#e0e0e0"></path><path d="M185,353.44H317.66a.23.23,0,0,0,0-.45H185a.23.23,0,0,0,0,.45Z" style="fill:#e0e0e0"></path><g style="opacity:0.30000000000000004"><polygon points="184.91 330.66 315.43 330.66 315.43 360.41 317.69 360.41 317.69 326.8 184.94 326.8 184.91 330.66"></polygon></g><rect x="332.2" y="326.8" width="52.48" height="33.78" style="fill:#455a64"></rect><path d="M332.1,353.13h52.2a.22.22,0,1,0,0-.45H332.1a.22.22,0,0,0,0,.45Z" style="fill:#e0e0e0"></path><path d="M358.21,326.93v33.78a.23.23,0,0,0,.45,0V326.93a.23.23,0,0,0-.45,0Z" style="fill:#e0e0e0"></path><g style="opacity:0.30000000000000004"><polygon points="332.2 326.8 332.2 330.68 381.06 330.75 381.13 360.58 384.67 360.58 384.67 326.8 332.2 326.8"></polygon></g><rect x="42.41" y="370.43" width="353.28" height="3.34" style="fill:#fff"></rect><path d="M394.09,314.33c0,.13-78.83.23-176,.23S42,314.46,42,314.33s78.81-.24,176.07-.24S394.09,314.19,394.09,314.33Z" style="fill:#263238"></path><g style="opacity:0.30000000000000004"><polygon points="42.32 293.62 42.32 297.29 171.34 297.29 171.34 305.91 175.06 305.91 175.06 293.62 42.32 293.62"></polygon></g><rect x="184.93" y="293.62" width="132.74" height="12.36" style="fill:#455a64"></rect><path d="M305.66,293.71v12.2a.23.23,0,0,0,.46,0v-12.2a.23.23,0,0,0-.46,0Z" style="fill:#e0e0e0"></path><path d="M290.83,293.71v12.2a.23.23,0,0,0,.45,0v-12.2a.22.22,0,0,0-.45,0Z" style="fill:#e0e0e0"></path><path d="M276,293.71v12.2a.23.23,0,0,0,.46,0v-12.2a.23.23,0,0,0-.46,0Z" style="fill:#e0e0e0"></path><path d="M261.16,293.71v12.2a.23.23,0,0,0,.45,0v-12.2a.22.22,0,0,0-.45,0Z" style="fill:#e0e0e0"></path><path d="M246.32,293.71v12.2a.23.23,0,0,0,.46,0v-12.2a.23.23,0,0,0-.46,0Z" style="fill:#e0e0e0"></path><path d="M231.48,293.71v12.2a.23.23,0,0,0,.46,0v-12.2a.23.23,0,0,0-.46,0Z" style="fill:#e0e0e0"></path><path d="M216.65,293.71v12.2a.23.23,0,0,0,.45,0v-12.2a.22.22,0,0,0-.45,0Z" style="fill:#e0e0e0"></path><path d="M201.81,293.71v12.2a.23.23,0,0,0,.46,0v-12.2a.23.23,0,0,0-.46,0Z" style="fill:#e0e0e0"></path><g style="opacity:0.30000000000000004"><polygon points="184.93 293.62 184.93 297.29 313.95 297.29 313.95 305.91 317.67 305.91 317.67 293.62 184.93 293.62"></polygon></g><rect x="344.77" y="293.92" width="11.63" height="11.64" style="fill:#455a64"></rect><rect x="363.9" y="293.97" width="11.63" height="11.64" style="fill:#455a64"></rect><g style="opacity:0.30000000000000004"><polygon points="344.77 296.32 353.65 296.32 353.65 305.56 356.4 305.56 356.4 293.92 344.77 293.92 344.77 296.32"></polygon></g><g style="opacity:0.30000000000000004"><polygon points="364.07 296.32 372.95 296.32 372.95 305.56 375.7 305.56 375.7 293.92 364.07 293.92 364.07 296.32"></polygon></g><g style="opacity:0.30000000000000004"><rect x="327.68" y="387.23" width="12.24" height="7.36" style="fill:#fff"></rect></g><g style="opacity:0.30000000000000004"><rect x="188.02" y="430.05" width="12.24" height="7.36" style="fill:#fff"></rect></g><g style="opacity:0.30000000000000004"><rect x="183.58" y="278.51" width="12.24" height="7.36" style="fill:#fff"></rect></g><g style="opacity:0.30000000000000004"><rect x="167.41" y="278.51" width="12.24" height="7.36" style="fill:#fff"></rect></g><g style="opacity:0.30000000000000004"><rect x="301.19" y="388.47" width="8.1" height="4.88" style="fill:#fff"></rect></g><rect x="525.3" y="352.9" width="186.62" height="86.53" style="fill:#e0e0e0"></rect><path d="M711.92,439.44s0-.53,0-1.55,0-2.53,0-4.5c0-3.95,0-9.76,0-17.24,0-14.95-.06-36.56-.1-63.25l.19.19-186.61.07h0l.26-.26c0,30.44,0,59.71,0,86.54l-.25-.25,134,.12,38.7.07,10.34,0H711l.92,0H711l-2.64,0-10.29,0-38.64.07-134.16.11h-.24v-.24c0-26.83,0-56.1,0-86.54v-.26h.27l186.61.07h.19v.19c0,26.74-.08,48.39-.1,63.37,0,7.46,0,13.26,0,17.2,0,1.95,0,3.45,0,4.46S711.92,439.44,711.92,439.44Z" style="fill:#263238"></path><path d="M562.68,373.09v4h-13.2V361.26h12.9v4h-7.64v1.86h6.71V371h-6.71v2.08Z" style="fill:#fff"></path><path d="M578.92,377.13l0-7.24-3.45,5.81h-2.35l-3.45-5.56v7h-4.88V361.26h4.4l5.17,8.45,5-8.45h4.4l0,15.87Z" style="fill:#fff"></path><path d="M599.58,373.09v4h-13.2V361.26h12.9v4h-7.64v1.86h6.71V371h-6.71v2.08Z" style="fill:#fff"></path><path d="M608.44,373.14H607v4h-5.35V361.26h7.64c4.42,0,7.24,2.31,7.24,6a5.31,5.31,0,0,1-3,5l3.34,4.9h-5.72Zm.5-7.76h-2v3.72h2c1.48,0,2.18-.7,2.18-1.86S610.42,365.38,608.94,365.38Z" style="fill:#fff"></path><path d="M629,368.76h4.65v6.71a12.76,12.76,0,0,1-6.91,2c-5.13,0-8.87-3.42-8.87-8.3s3.74-8.3,9-8.3a9,9,0,0,1,7.26,3.06l-3.43,3a4.52,4.52,0,0,0-3.56-1.75,4,4,0,0,0-.07,7.94,4.82,4.82,0,0,0,1.95-.39Z" style="fill:#fff"></path><path d="M649.17,373.09v4H636V361.26h12.91v4h-7.65v1.86H648V371h-6.72v2.08Z" style="fill:#fff"></path><path d="M666.88,361.26v15.87h-4.4l-6-7.21v7.21h-5.21V361.26h4.4l6,7.21v-7.21Z" style="fill:#fff"></path><path d="M668.83,369.19c0-4.87,3.75-8.3,8.85-8.3a8.6,8.6,0,0,1,7.12,3.18l-3.38,3a4.29,4.29,0,0,0-3.47-1.86,4,4,0,0,0,0,7.94,4.29,4.29,0,0,0,3.47-1.86l3.38,3a8.59,8.59,0,0,1-7.12,3.17C672.58,377.49,668.83,374.07,668.83,369.19Z" style="fill:#fff"></path><path d="M695.77,371.37v5.76h-5.35V371.3l-6-10h5.64l3.24,5.48,3.27-5.48h5.17Z" style="fill:#fff"></path><g style="opacity:0.30000000000000004"><rect x="586.6" y="398.06" width="114.99" height="41.65"></rect></g><rect x="604.51" y="394.7" width="8.79" height="45.08" style="fill:#e0e0e0"></rect><rect x="619.49" y="402.6" width="78.68" height="37.19" style="fill:#455a64"></rect><g style="opacity:0.30000000000000004"><polygon points="698.17 402.6 619.49 432.51 619.49 439.42 698.17 408.71 698.17 402.6" style="fill:#fff"></polygon></g><g style="opacity:0.30000000000000004"><polygon points="625.55 439.78 630.38 439.78 698.17 413.04 698.17 411.28 625.55 439.78" style="fill:#fff"></polygon></g><rect x="641.96" y="413.44" width="38.54" height="0.5" style="fill:#e0e0e0"></rect><rect x="657.1" y="423.3" width="1.24" height="4.61" style="fill:#e0e0e0"></rect><rect x="663.99" y="423.3" width="1.24" height="4.61" style="fill:#e0e0e0"></rect><path d="M642.17,439.78V402.6a.23.23,0,0,0-.46,0v37.18a.23.23,0,0,0,.46,0Z" style="fill:#e0e0e0"></path><path d="M680.73,439.78V402.6a.23.23,0,0,0-.46,0v37.18a.23.23,0,0,0,.46,0Z" style="fill:#e0e0e0"></path><path d="M661,414v25.59a.23.23,0,0,0,.46,0V414a.23.23,0,0,0-.46,0Z" style="fill:#e0e0e0"></path><g style="opacity:0.30000000000000004"><polygon points="621.81 439.78 621.81 405.05 698.17 405.05 698.17 402.6 619.49 402.6 619.49 439.78 621.81 439.78"></polygon></g><polygon points="698.42 439.78 697.92 439.78 697.92 402.85 619.74 402.85 619.74 439.78 619.24 439.78 619.24 402.35 698.42 402.35 698.42 439.78" style="fill:#e0e0e0"></polygon><rect x="536.85" y="382.67" width="175.07" height="2.71" style="fill:#FF5E47"></rect><rect x="395.69" y="132.32" width="141.18" height="307.12" style="fill:#FF5E47"></rect><g style="opacity:0.30000000000000004"><rect x="407.78" y="395.24" width="118.33" height="44.19"></rect></g><rect x="444.79" y="166" width="92.08" height="218.02" style="fill:#455a64"></rect><rect x="395.69" y="387.02" width="141.18" height="8.22" style="fill:#FF5E47"></rect><path d="M439.2,136.27v14h-4.72v-5.17h-4.37v5.17h-4.72v-14h4.72v5h4.37v-5Z" style="fill:#fafafa"></path><path d="M440.92,143.28c0-4.24,3.34-7.33,7.91-7.33s7.91,3.09,7.91,7.33-3.35,7.33-7.91,7.33S440.92,147.52,440.92,143.28Zm11.05,0a3.16,3.16,0,1,0-3.14,3.5A3.19,3.19,0,0,0,452,143.28Z" style="fill:#fafafa"></path><path d="M457.57,149.17l1.53-3.45a9.6,9.6,0,0,0,4.62,1.28c1.34,0,1.82-.28,1.82-.76,0-1.76-7.75-.34-7.75-5.56,0-2.6,2.19-4.73,6.53-4.73a11.18,11.18,0,0,1,5.29,1.22l-1.43,3.43a8.64,8.64,0,0,0-3.9-1c-1.38,0-1.82.4-1.82.88,0,1.68,7.75.28,7.75,5.44,0,2.56-2.19,4.73-6.53,4.73A12.62,12.62,0,0,1,457.57,149.17Z" style="fill:#fafafa"></path><path d="M484.74,141.56c0,3.24-2.48,5.28-6.39,5.28h-2v3.45h-4.72v-14h6.74C482.26,136.27,484.74,138.32,484.74,141.56Zm-4.77,0c0-1-.62-1.64-1.92-1.64h-1.72v3.28h1.72C479.35,143.2,480,142.58,480,141.56Z" style="fill:#fafafa"></path><path d="M486.28,136.27H491v14h-4.72Z" style="fill:#fafafa"></path><path d="M496.33,139.94h-4.11v-3.67h12.93v3.67h-4.1v10.35h-4.72Z" style="fill:#fafafa"></path><path d="M515.22,147.84H509.9l-.94,2.45h-4.81l6.13-14h4.64l6.13,14h-4.89Zm-1.3-3.4-1.36-3.52-1.36,3.52Z" style="fill:#fafafa"></path><path d="M521.81,136.27h4.72v10.35h6.33v3.67H521.81Z" style="fill:#fafafa"></path><rect x="417.6" y="179.11" width="13.4" height="13.39" style="fill:#455a64"></rect><rect x="417.6" y="223.6" width="13.4" height="13.4" style="fill:#455a64"></rect><rect x="417.6" y="270.31" width="13.4" height="13.4" style="fill:#455a64"></rect><rect x="417.6" y="317.02" width="13.4" height="13.4" style="fill:#455a64"></rect><rect x="417.6" y="363.73" width="13.4" height="13.39" style="fill:#455a64"></rect><rect x="406.22" y="405.13" width="21.66" height="30.27" style="fill:#455a64"></rect><path d="M428.38,435.91H405.72V404.63h22.66Zm-21.66-1h20.66V405.63H406.72Z" style="fill:#e0e0e0"></path><g style="opacity:0.30000000000000004"><polygon points="427.88 406.83 406.22 415.64 406.22 422.55 427.88 413.11 427.88 406.83" style="fill:#fff"></polygon></g><g style="opacity:0.30000000000000004"><polygon points="427.88 415.92 406.22 425.61 406.22 427.51 427.88 417.69 427.88 415.92" style="fill:#fff"></polygon></g><rect x="426.8" y="395.24" width="12.53" height="44.19" style="fill:#FF5E47"></rect><rect x="447.63" y="407.17" width="38.53" height="32.27" style="fill:#455a64"></rect><g style="opacity:0.30000000000000004"><polygon points="485.81 409.87 447.93 425.61 447.93 432.51 485.81 416.14 485.81 409.87" style="fill:#fff"></polygon></g><g style="opacity:0.30000000000000004"><polygon points="485.67 419.09 447.78 434.83 447.78 436.74 485.67 420.86 485.67 419.09" style="fill:#fff"></polygon></g><g style="opacity:0.30000000000000004"><polygon points="448.1 436.05 449.31 409.01 485.81 407.7 447.63 407.17 448.1 436.05"></polygon></g><polygon points="486.67 439.44 485.67 439.44 485.67 407.67 448.13 407.67 448.13 439.44 447.13 439.44 447.13 406.67 486.67 406.67 486.67 439.44" style="fill:#e0e0e0"></polygon><rect x="466.44" y="407.37" width="1" height="32.07" style="fill:#e0e0e0"></rect><rect x="447.68" y="413.44" width="38.54" height="0.5" style="fill:#e0e0e0"></rect><rect x="462.81" y="423.3" width="1.24" height="4.61" style="fill:#e0e0e0"></rect><rect x="469.7" y="423.3" width="1.24" height="4.61" style="fill:#e0e0e0"></rect><rect x="504.44" y="405.13" width="21.66" height="30.27" style="fill:#455a64"></rect><path d="M526.61,435.91H503.94V404.63h22.67Zm-21.67-1h20.67V405.63H504.94Z" style="fill:#e0e0e0"></path><g style="opacity:0.30000000000000004"><polygon points="526.11 406.83 504.44 415.64 504.44 422.55 526.11 413.11 526.11 406.83" style="fill:#fff"></polygon></g><g style="opacity:0.30000000000000004"><polygon points="526.11 415.92 504.44 425.61 504.44 427.51 526.11 417.69 526.11 415.92" style="fill:#fff"></polygon></g><rect x="492.85" y="395.24" width="12.53" height="44.19" style="fill:#FF5E47"></rect><rect x="525.3" y="395.24" width="11.67" height="44.19" style="fill:#FF5E47"></rect><g style="opacity:0.30000000000000004"><rect x="395.69" y="202.63" width="12.24" height="7.36" style="fill:#fff"></rect></g><g style="opacity:0.30000000000000004"><rect x="395.69" y="162.32" width="12.24" height="7.36" style="fill:#fff"></rect></g><g style="opacity:0.30000000000000004"><rect x="494.64" y="151.04" width="12.24" height="7.36" style="fill:#fff"></rect></g><g style="opacity:0.30000000000000004"><rect x="478.45" y="146.93" width="12.24" height="7.36" style="fill:#fff"></rect></g><g style="opacity:0.30000000000000004"><rect x="395.69" y="252.15" width="12.24" height="7.36" style="fill:#fff"></rect></g><g style="opacity:0.30000000000000004"><rect x="395.69" y="301.66" width="12.24" height="7.36" style="fill:#fff"></rect></g><g style="opacity:0.30000000000000004"><rect x="395.69" y="350.29" width="12.24" height="7.36" style="fill:#fff"></rect></g><polygon points="536.87 385.03 443.79 385.03 443.79 165 536.87 165 536.87 167 445.79 167 445.79 383.03 536.87 383.03 536.87 385.03" style="fill:#e0e0e0"></polygon><rect x="444.79" y="214.56" width="92.08" height="3.68" style="fill:#e0e0e0"></rect><rect x="444.79" y="271.42" width="92.08" height="3.68" style="fill:#e0e0e0"></rect><rect x="444.79" y="328.28" width="92.08" height="3.68" style="fill:#e0e0e0"></rect><path d="M477.59,166.7V383.76a.23.23,0,0,0,.46,0V166.7a.23.23,0,0,0-.46,0Z" style="fill:#e0e0e0"></path><path d="M511.08,166V384a.23.23,0,0,0,.46,0V166a.23.23,0,0,0-.46,0Z" style="fill:#e0e0e0"></path><path d="M445.31,357.89h91a.23.23,0,0,0,0-.46h-91a.23.23,0,0,0,0,.46Z" style="fill:#e0e0e0"></path><path d="M445.31,301.92h91a.23.23,0,0,0,0-.46h-91a.23.23,0,0,0,0,.46Z" style="fill:#e0e0e0"></path><path d="M445.31,246h91a.23.23,0,0,0,0-.46h-91a.23.23,0,0,0,0,.46Z" style="fill:#e0e0e0"></path><path d="M445.31,190.59h91a.23.23,0,0,0,0-.46h-91a.23.23,0,0,0,0,.46Z" style="fill:#e0e0e0"></path><g style="opacity:0.30000000000000004"><polygon points="536.97 182.5 445.31 240.34 445.31 257.46 536.87 202.32 536.97 182.5" style="fill:#fff"></polygon></g><g style="opacity:0.30000000000000004"><polygon points="536.97 289.32 445.31 347.16 445.31 364.29 536.87 309.14 536.97 289.32" style="fill:#fff"></polygon></g><g style="opacity:0.30000000000000004"><polygon points="536.97 227.98 445.31 285.82 445.31 292.61 536.87 236.99 536.97 227.98" style="fill:#fff"></polygon></g><g style="opacity:0.30000000000000004"><polygon points="420.02 330.42 420.02 318.93 430.99 318.93 430.99 317.02 417.6 317.02 417.6 330.42 420.02 330.42"></polygon></g><g style="opacity:0.30000000000000004"><polygon points="420.02 377.13 420.02 365.64 430.99 365.64 430.99 363.73 417.6 363.73 417.6 377.13 420.02 377.13"></polygon></g><g style="opacity:0.30000000000000004"><polygon points="420.02 236.99 420.02 225.5 430.99 225.5 430.99 223.6 417.6 223.6 417.6 236.99 420.02 236.99"></polygon></g><g style="opacity:0.30000000000000004"><polygon points="420.02 283.7 420.02 272.21 430.99 272.21 430.99 270.31 417.6 270.31 417.6 283.7 420.02 283.7"></polygon></g><g style="opacity:0.30000000000000004"><polygon points="420.02 192.51 420.02 181.02 430.99 181.02 430.99 179.12 417.6 179.12 417.6 192.51 420.02 192.51"></polygon></g><rect x="395.69" y="395.24" width="12.53" height="44.19" style="fill:#FF5E47"></rect><polygon points="415.12 141.62 411.36 141.62 411.36 137.85 407.73 137.85 407.73 141.62 403.97 141.62 403.97 145.24 407.73 145.24 407.73 149 411.36 149 411.36 145.24 415.12 145.24 415.12 141.62" style="fill:#fafafa"></polygon><rect x="450.16" y="397.7" width="2.28" height="7.02" style="fill:#fff"></rect><rect x="450.16" y="397.7" width="2.28" height="7.02" transform="translate(50.1 852.5) rotate(-90)" style="fill:#fff"></rect><rect x="456.89" y="399.57" width="28.78" height="3.27" style="fill:#fff"></rect><path d="M395.69,439.71c-.13,0-.23-66.33-.23-148.14s.1-148.14.23-148.14.24,66.31.24,148.14S395.82,439.71,395.69,439.71Z" style="fill:#263238"></path></g><g id="freepik--Birds--inject-114"><path d="M643.54,122.75s-.6-.21-1.71-.45a13.41,13.41,0,0,0-4.75-.19,12.83,12.83,0,0,0-6.41,2.77,13.29,13.29,0,0,0-4.53,7.18l0,.08-.13.52-.2-.49a14.21,14.21,0,0,0-5.42-6.54,13.79,13.79,0,0,0-6.61-2.21,14.77,14.77,0,0,0-4.73.43c-1.09.29-1.67.54-1.68.51a1.83,1.83,0,0,1,.41-.2,10.43,10.43,0,0,1,1.23-.44,14.23,14.23,0,0,1,4.78-.54,13.86,13.86,0,0,1,6.78,2.18,14.47,14.47,0,0,1,5.56,6.68l-.33,0,0-.09a13.54,13.54,0,0,1,4.66-7.35,12.93,12.93,0,0,1,6.58-2.76,13.11,13.11,0,0,1,4.82.29,10.14,10.14,0,0,1,1.26.4A2.25,2.25,0,0,1,643.54,122.75Z" style="fill:#263238"></path><path d="M691.11,96.65s-.34-.1-1-.22a7.31,7.31,0,0,0-2.6-.08,7,7,0,0,0-3.49,1.52,7.31,7.31,0,0,0-2.46,3.92v0l-.13.51-.2-.48a7.82,7.82,0,0,0-2.94-3.57,7.61,7.61,0,0,0-3.61-1.22,8.58,8.58,0,0,0-2.59.21c-.6.15-.92.28-.93.25a.85.85,0,0,1,.22-.12,6.75,6.75,0,0,1,.68-.26,7.44,7.44,0,0,1,2.64-.32A7.62,7.62,0,0,1,678.5,98a7.94,7.94,0,0,1,3.09,3.71l-.32,0v0a7.49,7.49,0,0,1,2.59-4.09,7.13,7.13,0,0,1,3.66-1.51,7,7,0,0,1,2.66.19,4.19,4.19,0,0,1,.69.23C691,96.59,691.11,96.63,691.11,96.65Z" style="fill:#263238"></path><path d="M660,86s-.33.37-.92,1a22.53,22.53,0,0,0-2.23,3,22,22,0,0,0-3.32,11.73v.15l-.34,0a19.19,19.19,0,0,0-2.15-6.35,19.64,19.64,0,0,0-3.26-4.41A20.06,20.06,0,0,0,645,88.75c-.73-.49-1.14-.75-1.13-.77a1.16,1.16,0,0,1,.32.15c.2.12.52.26.88.51A18,18,0,0,1,648,91a19.41,19.41,0,0,1,5.58,10.89l-.34,0v-.15a21.57,21.57,0,0,1,3.45-11.87,20.44,20.44,0,0,1,2.34-3c.3-.33.57-.56.74-.72S660,86,660,86Z" style="fill:#263238"></path></g></svg>